<svg width="18" height="18" viewBox="0 0 18 18" fill="none" xmlns="http://www.w3.org/2000/svg">
<g clip-path="url(#clip0_28_8)">
<path d="M10.9 9.00001C10.9 10.0493 10.0493 10.9 9.00001 10.9C7.95066 10.9 7.10001 10.0493 7.10001 9.00001C7.10001 7.95066 7.95066 7.10001 9.00001 7.10001C10.0493 7.10001 10.9 7.95066 10.9 9.00001Z" stroke="black"/>
<path d="M5.3775 3.5H5.59772L5.74638 3.33753L6.97022 2H11.0298L12.2536 3.33753L12.4023 3.5H12.6225H15C15.5489 3.5 16 3.95114 16 4.5V13.5C16 14.0489 15.5489 14.5 15 14.5H3C2.45114 14.5 2 14.0489 2 13.5V4.5C2 3.95114 2.45114 3.5 3 3.5H5.3775ZM4.75 9C4.75 11.3461 6.65386 13.25 9 13.25C11.3461 13.25 13.25 11.3461 13.25 9C13.25 6.65386 11.3461 4.75 9 4.75C6.65386 4.75 4.75 6.65386 4.75 9Z" fill="white" stroke="white"/>
</g>
<defs>
<clipPath id="clip0_28_8">
<rect width="18" height="18" fill="white"/>
</clipPath>
</defs>
</svg>
